<svg width="122.883" height="122.882" xmlns="http://www.w3.org/2000/svg" version="1.1" enable-background="new 0 0 122.883 122.882" xml:space="preserve">
 <g>
  <title>Layer 1</title>
  <g id="svg_1">
   <path d="m61.441,0l0,0l0.001,0.018c16.974,0 32.335,6.872 43.443,17.98s17.98,26.467 17.98,43.441l0.018,0l0,0.002l0,0l-0.018,0c0,16.976 -6.873,32.335 -17.98,43.443c-11.109,11.107 -26.467,17.979 -43.442,17.979l0,0.018l-0.002,0l0,0l0,-0.018c-16.975,0 -32.335,-6.872 -43.443,-17.98c-11.108,-11.108 -17.98,-26.466 -17.98,-43.441l-0.018,0l0,-0.001l0,-0.001l0.018,0c0,-16.975 6.872,-32.334 17.98,-43.443c11.108,-11.107 26.467,-17.979 43.442,-17.979l0.001,-0.018l0,0l0,0zm10.26,42.48c1.908,-1.962 1.863,-5.101 -0.098,-7.009c-1.963,-1.909 -5.102,-1.865 -7.01,0.097l-21.838,22.52l3.553,3.456l-3.568,-3.46c-1.911,1.971 -1.863,5.118 0.108,7.029c0.058,0.056 0.116,0.109 0.175,0.162l21.571,22.057c1.908,1.962 5.047,2.006 7.01,0.097c1.961,-1.908 2.006,-5.047 0.098,-7.01l-18.475,-18.89l18.474,-19.049l0,0z" id="svg_2" fill="#fff" stroke="#000"/>
  </g>
 </g>

</svg>